<svg width="375" height="144" viewBox="0 0 375 144" fill="none" xmlns="http://www.w3.org/2000/svg">
<g clip-path="url(#clip0_1_74)">
<path d="M-4.58319 122.69C-4.58184 120.922 -3.87704 119.226 -2.62369 117.976C-1.37034 116.726 0.328987 116.024 2.10081 116.024C3.87263 116.024 5.57196 116.726 6.82531 117.976C8.07866 119.226 8.78346 120.922 8.78481 122.69" fill="#F2F2F2"/>
<path d="M2.10081 122.69C2.05291 122.69 2.00696 122.671 1.97309 122.637C1.93921 122.603 1.92017 122.558 1.92017 122.51V118.994C1.92017 118.946 1.9392 118.9 1.97308 118.867C2.00695 118.833 2.0529 118.814 2.10081 118.814C2.14873 118.814 2.19467 118.833 2.22855 118.867C2.26243 118.9 2.28147 118.946 2.28147 118.994V122.51C2.28146 122.558 2.26242 122.603 2.22854 122.637C2.19467 122.671 2.14872 122.69 2.10081 122.69Z" fill="#CCCCCC"/>
<path d="M2.10073 121.482C2.05757 121.482 2.01583 121.467 1.98313 121.438L-0.18463 119.582C-0.202871 119.566 -0.217885 119.547 -0.228805 119.526C-0.239726 119.505 -0.246337 119.482 -0.248255 119.458C-0.250174 119.434 -0.247363 119.411 -0.239985 119.388C-0.232606 119.365 -0.220805 119.344 -0.205265 119.326C-0.189725 119.308 -0.170752 119.293 -0.149443 119.283C-0.128135 119.272 -0.104912 119.266 -0.0811149 119.264C-0.0573178 119.262 -0.0334178 119.265 -0.010796 119.273C0.0118259 119.28 0.0327209 119.292 0.0506848 119.308L2.21847 121.165C2.24648 121.189 2.26646 121.221 2.27571 121.257C2.28496 121.292 2.28304 121.33 2.27021 121.364C2.25739 121.399 2.23427 121.429 2.20396 121.45C2.17366 121.471 2.13763 121.482 2.10071 121.482L2.10073 121.482Z" fill="#CCCCCC"/>
<path d="M16.0108 122.69C16.0122 120.922 16.717 119.226 17.9703 117.976C19.2237 116.726 20.923 116.024 22.6948 116.024C24.4666 116.024 26.166 116.726 27.4193 117.976C28.6727 119.226 29.3775 120.922 29.3788 122.69" fill="#F2F2F2"/>
<path d="M22.6948 122.69C22.6469 122.69 22.6009 122.671 22.5671 122.637C22.5332 122.603 22.5142 122.558 22.5142 122.51V118.994C22.5142 118.946 22.5332 118.9 22.5671 118.867C22.6009 118.833 22.6469 118.814 22.6948 118.814C22.7427 118.814 22.7887 118.833 22.8225 118.867C22.8564 118.9 22.8755 118.946 22.8755 118.994V122.51C22.8754 122.558 22.8564 122.603 22.8225 122.637C22.7887 122.671 22.7427 122.69 22.6948 122.69Z" fill="#CCCCCC"/>
<path d="M22.6947 121.482C22.6515 121.482 22.6098 121.467 22.5771 121.438L20.4093 119.582C20.391 119.566 20.376 119.547 20.3651 119.526C20.3541 119.505 20.3475 119.482 20.3456 119.458C20.3436 119.434 20.3464 119.411 20.3538 119.388C20.3612 119.365 20.373 119.344 20.3886 119.326C20.4041 119.308 20.4231 119.293 20.4444 119.283C20.4657 119.272 20.489 119.265 20.5128 119.264C20.5366 119.262 20.5605 119.265 20.5831 119.273C20.6058 119.28 20.6267 119.292 20.6446 119.308L22.8124 121.165C22.8404 121.189 22.8604 121.221 22.8697 121.256C22.8789 121.292 22.877 121.33 22.8642 121.364C22.8513 121.399 22.8282 121.429 22.7979 121.45C22.7676 121.471 22.7316 121.482 22.6947 121.482L22.6947 121.482Z" fill="#CCCCCC"/>
<path d="M26.3637 137.005C32.8153 137.005 38.0453 135.787 38.0453 134.284C38.0453 132.782 32.8153 131.564 26.3637 131.564C19.9121 131.564 14.682 132.782 14.682 134.284C14.682 135.787 19.9121 137.005 26.3637 137.005Z" fill="#F2F2F2"/>
<path d="M20.4005 22.6151C23.4642 13.0672 30.9451 5.66253 39.817 1.25844C50.3434 -3.96698 62.4393 -4.55862 73.8687 -2.52489C86.2069 -0.32946 97.7384 4.73164 108.9 10.2547C119.849 15.6721 130.62 21.3925 142.006 25.8694C164.738 34.7944 188.831 39.7751 213.244 40.5964C235.217 41.328 258.711 38.9252 277.526 26.599C294.765 15.305 305.735 -3.32701 311.448 -22.7488C312.18 -25.2353 312.83 -27.7431 313.399 -30.2723C313.565 -31.0029 312.439 -31.3148 312.273 -30.5822C307.664 -10.3009 297.836 9.74394 281.045 22.6722C262.883 36.6549 239.047 39.8874 216.742 39.5175C192.062 39.0874 167.644 34.3846 144.576 25.6187C132.897 21.1813 121.876 15.4192 110.715 9.85632C99.7987 4.41564 88.5758 -0.677319 76.5721 -3.18659C65.611 -5.47791 53.8755 -5.61753 43.3074 -1.54023C34.6054 1.81712 26.6709 7.80137 22.0275 15.9876C20.8953 17.9938 19.9727 20.1108 19.2741 22.3052C19.0443 23.0214 20.1717 23.3281 20.4005 22.6151Z" fill="#F2F2F2"/>
<path d="M187.177 111.888C187.28 111.888 187.379 111.847 187.452 111.774C187.525 111.701 187.566 111.603 187.566 111.5C187.566 111.396 187.525 111.298 187.452 111.225C187.379 111.152 187.28 111.111 187.177 111.111H183.478V109.556H187.177C187.28 109.556 187.379 109.515 187.452 109.443C187.525 109.37 187.566 109.271 187.566 109.168C187.566 109.065 187.525 108.966 187.452 108.893C187.379 108.82 187.28 108.779 187.177 108.779H155.636C155.533 108.779 155.434 108.82 155.361 108.893C155.288 108.966 155.247 109.065 155.247 109.168C155.247 109.271 155.288 109.37 155.361 109.443C155.434 109.515 155.533 109.556 155.636 109.556H159.335V111.111H155.636C155.533 111.111 155.434 111.152 155.361 111.225C155.288 111.298 155.247 111.396 155.247 111.5C155.247 111.603 155.288 111.701 155.361 111.774C155.434 111.847 155.533 111.888 155.636 111.888H159.335V113.443H155.636C155.533 113.443 155.434 113.484 155.361 113.556C155.288 113.629 155.247 113.728 155.247 113.831C155.247 113.934 155.288 114.033 155.361 114.106C155.434 114.179 155.533 114.22 155.636 114.22H159.335V115.774H156.026C155.819 115.774 155.621 115.856 155.475 116.002C155.329 116.148 155.247 116.345 155.247 116.552C155.247 116.758 155.329 116.955 155.475 117.101C155.621 117.247 155.819 117.329 156.026 117.329H159.176C159.153 117.391 159.141 117.457 159.141 117.523V122.964C159.141 123.118 159.202 123.267 159.312 123.376C159.421 123.485 159.57 123.547 159.725 123.547C159.88 123.547 160.028 123.485 160.138 123.376C160.247 123.267 160.309 123.118 160.309 122.964V117.523C160.308 117.457 160.296 117.391 160.273 117.329H182.54C182.517 117.391 182.505 117.457 182.504 117.523V122.964C182.504 123.118 182.566 123.267 182.675 123.376C182.785 123.485 182.933 123.547 183.088 123.547C183.243 123.547 183.392 123.485 183.501 123.376C183.611 123.267 183.672 123.118 183.672 122.964V117.523C183.672 117.457 183.659 117.391 183.637 117.329H186.787C186.994 117.329 187.192 117.247 187.338 117.101C187.484 116.955 187.566 116.758 187.566 116.552C187.566 116.345 187.484 116.148 187.338 116.002C187.192 115.856 186.994 115.774 186.787 115.774H183.478V114.22H187.177C187.28 114.22 187.379 114.179 187.452 114.106C187.525 114.033 187.566 113.934 187.566 113.831C187.566 113.728 187.525 113.629 187.452 113.556C187.379 113.484 187.28 113.443 187.177 113.443H183.478V111.888H187.177ZM160.114 109.556H182.699V111.111H160.114V109.556ZM182.699 115.774H160.114V114.22H182.699V115.774ZM182.699 113.443H160.114V111.888H182.699V113.443Z" fill="#3F3D56"/>
<path d="M68.4177 95.5771C68.4177 88.7136 62.839 72.4268 55.9573 72.4268C49.0756 72.4268 43.4968 88.7136 43.4968 95.5771C43.4968 98.8753 44.8096 102.038 47.1464 104.371C49.4832 106.703 52.6526 108.013 55.9573 108.013C59.262 108.013 62.4314 106.703 64.7682 104.371C67.1049 102.038 68.4177 98.8753 68.4177 95.5771H68.4177Z" fill="#E6E6E6"/>
<path d="M65.3026 95.5771C65.3026 88.7136 59.7239 72.4268 52.8422 72.4268C45.9605 72.4268 40.3817 88.7136 40.3817 95.5771C40.3817 98.8753 41.6945 102.038 44.0313 104.371C46.3681 106.703 49.5375 108.013 52.8422 108.013C56.1469 108.013 59.3163 106.703 61.6531 104.371C63.9898 102.038 65.3026 98.8753 65.3026 95.5771H65.3026Z" fill="#F2F2F2"/>
<path d="M53.2316 123.383C53.1283 123.383 53.0292 123.342 52.9562 123.269C52.8832 123.196 52.8422 123.098 52.8422 122.995V88.3526C52.8422 88.2495 52.8832 88.1506 52.9562 88.0778C53.0292 88.0049 53.1283 87.9639 53.2316 87.9639C53.3348 87.9639 53.4339 88.0049 53.5069 88.0778C53.5799 88.1506 53.6209 88.2495 53.6209 88.3526V122.995C53.6209 123.098 53.5799 123.196 53.5069 123.269C53.4339 123.342 53.3348 123.383 53.2316 123.383Z" fill="#CCCCCC"/>
<path d="M53.2315 94.0316C53.1545 94.0316 53.0793 94.0088 53.0152 93.9661C52.9512 93.9234 52.9013 93.8627 52.8719 93.7917C52.8424 93.7207 52.8347 93.6425 52.8497 93.5672C52.8647 93.4918 52.9018 93.4226 52.9562 93.3682L58.0485 88.2858C58.1215 88.2129 58.2206 88.1719 58.3238 88.1719C58.4271 88.1719 58.5261 88.2129 58.5991 88.2858C58.6722 88.3586 58.7132 88.4575 58.7132 88.5605C58.7132 88.6636 58.6722 88.7624 58.5991 88.8353L53.5069 93.9177C53.4707 93.9539 53.4278 93.9826 53.3806 94.0021C53.3333 94.0216 53.2827 94.0317 53.2315 94.0316Z" fill="#CCCCCC"/>
<path d="M196.527 123.383C196.423 123.383 196.324 123.342 196.251 123.269C196.178 123.196 196.137 123.098 196.137 122.995V88.3526C196.137 88.2495 196.178 88.1506 196.251 88.0778C196.324 88.0049 196.423 87.9639 196.527 87.9639C196.63 87.9639 196.729 88.0049 196.802 88.0778C196.875 88.1506 196.916 88.2495 196.916 88.3526V122.995C196.916 123.098 196.875 123.196 196.802 123.269C196.729 123.342 196.63 123.383 196.527 123.383Z" fill="#3F3D56"/>
<path d="M238.191 95.5771C238.191 88.7136 232.613 72.4268 225.731 72.4268C218.849 72.4268 213.27 88.7136 213.27 95.5771C213.27 98.8753 214.583 102.038 216.92 104.371C219.257 106.703 222.426 108.013 225.731 108.013C229.036 108.013 232.205 106.703 234.542 104.371C236.879 102.038 238.191 98.8753 238.191 95.5771H238.191Z" fill="#E6E6E6"/>
<path d="M235.076 95.5771C235.076 88.7136 229.497 72.4268 222.616 72.4268C215.734 72.4268 210.155 88.7136 210.155 95.5771C210.155 98.8753 211.468 102.038 213.805 104.371C216.142 106.703 219.311 108.013 222.616 108.013C225.92 108.013 229.09 106.703 231.427 104.371C233.763 102.038 235.076 98.8753 235.076 95.5771H235.076Z" fill="#F2F2F2"/>
<path d="M223.005 123.383C222.902 123.383 222.803 123.342 222.73 123.269C222.657 123.196 222.616 123.098 222.616 122.995V88.3526C222.616 88.2495 222.657 88.1506 222.73 88.0778C222.803 88.0049 222.902 87.9639 223.005 87.9639C223.108 87.9639 223.207 88.0049 223.28 88.0778C223.353 88.1506 223.395 88.2495 223.395 88.3526V122.995C223.395 123.098 223.353 123.196 223.28 123.269C223.207 123.342 223.108 123.383 223.005 123.383Z" fill="#CCCCCC"/>
<path d="M223.005 94.0316C222.928 94.0316 222.853 94.0088 222.789 93.9661C222.725 93.9234 222.675 93.8627 222.645 93.7917C222.616 93.7207 222.608 93.6425 222.623 93.5672C222.638 93.4918 222.675 93.4226 222.73 93.3682L227.822 88.2858C227.895 88.2129 227.994 88.1719 228.097 88.1719C228.201 88.1719 228.3 88.2129 228.373 88.2858C228.446 88.3586 228.487 88.4575 228.487 88.5605C228.487 88.6636 228.446 88.7624 228.373 88.8353L223.28 93.9177C223.244 93.9539 223.201 93.9826 223.154 94.0021C223.107 94.0216 223.056 94.0317 223.005 94.0316Z" fill="#CCCCCC"/>
<path d="M119.038 123.209H87.1084C86.2309 123.208 85.3896 122.859 84.7691 122.24C84.1486 121.621 83.7996 120.781 83.7986 119.905V-8.72851C83.7996 -9.6043 84.1486 -10.4439 84.7691 -11.0632C85.3896 -11.6825 86.2309 -12.0308 87.1084 -12.0318H119.038C119.916 -12.0308 120.757 -11.6825 121.378 -11.0632C121.998 -10.4439 122.347 -9.6043 122.348 -8.72851V119.905C122.347 120.781 121.998 121.621 121.378 122.24C120.757 122.859 119.916 123.208 119.038 123.209Z" fill="#E6E6E6"/>
<path d="M99.9582 123.209H68.0283C67.1508 123.208 66.3095 122.859 65.689 122.24C65.0685 121.621 64.7195 120.781 64.7185 119.905V-8.72851C64.7195 -9.6043 65.0685 -10.4439 65.689 -11.0632C66.3095 -11.6825 67.1508 -12.0308 68.0283 -12.0318H99.9582C100.836 -12.0308 101.677 -11.6825 102.297 -11.0632C102.918 -10.4439 103.267 -9.6043 103.268 -8.72851V119.905C103.267 120.781 102.918 121.621 102.297 122.24C101.677 122.859 100.836 123.208 99.9582 123.209Z" fill="#F2F2F2"/>
<path d="M80.4887 17.1149H73.0904C72.8323 17.1146 72.5848 17.0121 72.4023 16.83C72.2198 16.6479 72.1172 16.4009 72.1169 16.1433V4.87329C72.1172 4.61571 72.2198 4.36876 72.4023 4.18662C72.5848 4.00448 72.8323 3.90203 73.0904 3.90173H80.4887C80.7468 3.90203 80.9943 4.00448 81.1768 4.18662C81.3593 4.36876 81.4619 4.61571 81.4622 4.87329V16.1433C81.4619 16.4009 81.3593 16.6479 81.1768 16.83C80.9943 17.0121 80.7468 17.1146 80.4887 17.1149Z" fill="white"/>
<path d="M94.8962 17.1149H87.4978C87.2397 17.1146 86.9922 17.0121 86.8097 16.83C86.6272 16.6479 86.5246 16.4009 86.5243 16.1433V4.87329C86.5246 4.61571 86.6272 4.36876 86.8097 4.18662C86.9922 4.00448 87.2397 3.90203 87.4978 3.90173H94.8962C95.1542 3.90203 95.4017 4.00448 95.5842 4.18662C95.7667 4.36876 95.8693 4.61571 95.8696 4.87329V16.1433C95.8693 16.4009 95.7667 16.6479 95.5842 16.83C95.4017 17.0121 95.1542 17.1146 94.8962 17.1149Z" fill="white"/>
<path d="M80.4887 37.7119H73.0904C72.8323 37.7116 72.5848 37.6091 72.4023 37.427C72.2198 37.2448 72.1172 36.9979 72.1169 36.7403V25.4703C72.1172 25.2127 72.2198 24.9657 72.4023 24.7836C72.5848 24.6015 72.8323 24.499 73.0904 24.4987H80.4887C80.7468 24.499 80.9943 24.6015 81.1768 24.7836C81.3593 24.9657 81.4619 25.2127 81.4622 25.4703V36.7403C81.4619 36.9979 81.3593 37.2448 81.1768 37.427C80.9943 37.6091 80.7468 37.7116 80.4887 37.7119Z" fill="white"/>
<path d="M94.8962 37.7119H87.4978C87.2397 37.7116 86.9922 37.6091 86.8097 37.427C86.6272 37.2448 86.5246 36.9979 86.5243 36.7403V25.4703C86.5246 25.2127 86.6272 24.9657 86.8097 24.7836C86.9922 24.6015 87.2397 24.499 87.4978 24.4987H94.8962C95.1542 24.499 95.4017 24.6015 95.5842 24.7836C95.7667 24.9657 95.8693 25.2127 95.8696 25.4703V36.7403C95.8693 36.9979 95.7667 37.2448 95.5842 37.427C95.4017 37.6091 95.1542 37.7116 94.8962 37.7119Z" fill="white"/>
<path d="M80.4887 58.3089H73.0904C72.8323 58.3086 72.5848 58.2061 72.4023 58.024C72.2198 57.8418 72.1172 57.5949 72.1169 57.3373V46.0673C72.1172 45.8097 72.2198 45.5627 72.4023 45.3806C72.5848 45.1984 72.8323 45.096 73.0904 45.0957H80.4887C80.7468 45.096 80.9943 45.1984 81.1768 45.3806C81.3593 45.5627 81.4619 45.8097 81.4622 46.0673V57.3373C81.4619 57.5949 81.3593 57.8418 81.1768 58.024C80.9943 58.2061 80.7468 58.3086 80.4887 58.3089Z" fill="white"/>
<path d="M94.8962 58.3089H87.4978C87.2397 58.3086 86.9922 58.2061 86.8097 58.024C86.6272 57.8418 86.5246 57.5949 86.5243 57.3373V46.0673C86.5246 45.8097 86.6272 45.5627 86.8097 45.3806C86.9922 45.1984 87.2397 45.096 87.4978 45.0957H94.8962C95.1542 45.096 95.4017 45.1984 95.5842 45.3806C95.7667 45.5627 95.8693 45.8097 95.8696 46.0673V57.3373C95.8693 57.5949 95.7667 57.8418 95.5842 58.024C95.4017 58.2061 95.1542 58.3086 94.8962 58.3089Z" fill="white"/>
<path d="M80.4887 78.9058H73.0904C72.8323 78.9055 72.5848 78.803 72.4023 78.6209C72.2198 78.4387 72.1172 78.1918 72.1169 77.9342V66.6642C72.1172 66.4066 72.2198 66.1596 72.4023 65.9775C72.5848 65.7954 72.8323 65.6929 73.0904 65.6926H80.4887C80.7468 65.6929 80.9943 65.7954 81.1768 65.9775C81.3593 66.1596 81.4619 66.4066 81.4622 66.6642V77.9342C81.4619 78.1918 81.3593 78.4387 81.1768 78.6209C80.9943 78.803 80.7468 78.9055 80.4887 78.9058Z" fill="white"/>
<path d="M94.8962 78.9058H87.4978C87.2397 78.9055 86.9922 78.803 86.8097 78.6209C86.6272 78.4387 86.5246 78.1918 86.5243 77.9342V66.6642C86.5246 66.4066 86.6272 66.1596 86.8097 65.9775C86.9922 65.7954 87.2397 65.6929 87.4978 65.6926H94.8962C95.1542 65.6929 95.4017 65.7954 95.5842 65.9775C95.7667 66.1596 95.8693 66.4066 95.8696 66.6642V77.9342C95.8693 78.1918 95.7667 78.4387 95.5842 78.6209C95.4017 78.803 95.1542 78.9055 94.8962 78.9058Z" fill="white"/>
<path d="M80.4887 99.5028H73.0904C72.8323 99.5025 72.5848 99.4 72.4023 99.2179C72.2198 99.0357 72.1172 98.7888 72.1169 98.5312V87.2612C72.1172 87.0036 72.2198 86.7566 72.4023 86.5745C72.5848 86.3924 72.8323 86.2899 73.0904 86.2896H80.4887C80.7468 86.2899 80.9943 86.3924 81.1768 86.5745C81.3593 86.7566 81.4619 87.0036 81.4622 87.2612V98.5312C81.4619 98.7888 81.3593 99.0357 81.1768 99.2179C80.9943 99.4 80.7468 99.5025 80.4887 99.5028Z" fill="white"/>
<path d="M94.8962 99.5028H87.4978C87.2397 99.5025 86.9922 99.4 86.8097 99.2179C86.6272 99.0357 86.5246 98.7888 86.5243 98.5312V87.2612C86.5246 87.0036 86.6272 86.7566 86.8097 86.5745C86.9922 86.3924 87.2397 86.2899 87.4978 86.2896H94.8962C95.1542 86.2899 95.4017 86.3924 95.5842 86.5745C95.7667 86.7566 95.8693 87.0036 95.8696 87.2612V98.5312C95.8693 98.7888 95.7667 99.0357 95.5842 99.2179C95.4017 99.4 95.1542 99.5025 94.8962 99.5028Z" fill="white"/>
<path d="M255.325 57.143H249.094C248.63 57.1424 248.184 56.958 247.856 56.6302C247.527 56.3023 247.343 55.8578 247.342 55.3942V47.2331C247.343 46.7695 247.527 46.325 247.856 45.9971C248.184 45.6693 248.63 45.4848 249.094 45.4843H255.325C255.789 45.4848 256.234 45.6692 256.563 45.9971C256.891 46.3249 257.076 46.7695 257.077 47.2331V55.3942C257.076 55.8578 256.891 56.3023 256.563 56.6302C256.234 56.958 255.789 57.1424 255.325 57.143Z" fill="#E6E6E6"/>
<path d="M307.892 123.597H275.962C275.085 123.596 274.243 123.248 273.623 122.629C273.002 122.009 272.653 121.17 272.652 120.294V58.5031C272.653 57.6273 273.002 56.7877 273.623 56.1684C274.243 55.5491 275.085 55.2008 275.962 55.1998H307.892C308.769 55.2008 309.611 55.5491 310.231 56.1684C310.852 56.7877 311.201 57.6273 311.202 58.5031V120.294C311.201 121.17 310.852 122.009 310.231 122.629C309.611 123.248 308.769 123.596 307.892 123.597Z" fill="#E6E6E6"/>
<path d="M288.812 123.597H233.519C232.641 123.596 231.8 123.248 231.179 122.629C230.559 122.009 230.21 121.17 230.209 120.294V58.5031C230.21 57.6273 230.559 56.7877 231.179 56.1684C231.8 55.5491 232.641 55.2008 233.519 55.1998H288.812C289.689 55.2008 290.531 55.5491 291.151 56.1684C291.772 56.7877 292.121 57.6273 292.122 58.5031V120.294C292.121 121.17 291.772 122.009 291.151 122.629C290.531 123.248 289.689 123.596 288.812 123.597Z" fill="#F2F2F2"/>
<path d="M249.484 57.143H243.253C242.789 57.1424 242.343 56.958 242.015 56.6302C241.686 56.3023 241.502 55.8578 241.501 55.3942V47.2331C241.502 46.7695 241.686 46.325 242.015 45.9971C242.343 45.6693 242.789 45.4848 243.253 45.4843H249.484C249.948 45.4848 250.394 45.6692 250.722 45.9971C251.051 46.3249 251.235 46.7695 251.236 47.2331V55.3942C251.235 55.8578 251.051 56.3023 250.722 56.6302C250.394 56.958 249.948 57.1424 249.484 57.143Z" fill="#F2F2F2"/>
<path d="M257.661 85.7067H250.262C250.004 85.7064 249.757 85.6039 249.574 85.4218C249.392 85.2396 249.289 84.9927 249.289 84.7351V73.4651C249.289 73.2075 249.392 72.9606 249.574 72.7784C249.757 72.5963 250.004 72.4938 250.262 72.4935H257.661C257.919 72.4938 258.166 72.5963 258.349 72.7784C258.531 72.9606 258.634 73.2075 258.634 73.4651V84.7351C258.634 84.9927 258.531 85.2396 258.349 85.4218C258.166 85.6039 257.919 85.7064 257.661 85.7067Z" fill="white"/>
<path d="M272.068 85.7067H264.67C264.412 85.7064 264.164 85.6039 263.982 85.4218C263.799 85.2396 263.697 84.9927 263.696 84.7351V73.4651C263.697 73.2075 263.799 72.9606 263.982 72.7784C264.164 72.5963 264.412 72.4938 264.67 72.4935H272.068C272.326 72.4938 272.574 72.5963 272.756 72.7784C272.939 72.9606 273.041 73.2075 273.042 73.4651V84.7351C273.041 84.9927 272.939 85.2396 272.756 85.4218C272.574 85.6039 272.326 85.7064 272.068 85.7067Z" fill="white"/>
<path d="M257.661 106.304H250.262C250.004 106.303 249.757 106.201 249.574 106.019C249.392 105.837 249.289 105.59 249.289 105.332V94.0621C249.289 93.8045 249.392 93.5575 249.574 93.3754C249.757 93.1933 250.004 93.0908 250.262 93.0905H257.661C257.919 93.0908 258.166 93.1933 258.349 93.3754C258.531 93.5575 258.634 93.8045 258.634 94.0621V105.332C258.634 105.59 258.531 105.837 258.349 106.019C258.166 106.201 257.919 106.303 257.661 106.304Z" fill="white"/>
<path d="M272.068 106.304H264.67C264.412 106.303 264.164 106.201 263.982 106.019C263.799 105.837 263.697 105.59 263.696 105.332V94.0621C263.697 93.8045 263.799 93.5575 263.982 93.3754C264.164 93.1933 264.412 93.0908 264.67 93.0905H272.068C272.326 93.0908 272.574 93.1933 272.756 93.3754C272.939 93.5575 273.041 93.8045 273.042 94.0621V105.332C273.041 105.59 272.939 105.837 272.756 106.019C272.574 106.201 272.326 106.303 272.068 106.304Z" fill="white"/>
<path d="M391.611 123.792H-15.6106C-15.7139 123.792 -15.8129 123.751 -15.886 123.678C-15.959 123.605 -16 123.506 -16 123.403C-16 123.3 -15.959 123.201 -15.886 123.128C-15.8129 123.055 -15.7139 123.014 -15.6106 123.014H391.611C391.714 123.014 391.813 123.055 391.886 123.128C391.959 123.201 392 123.3 392 123.403C392 123.506 391.959 123.605 391.886 123.678C391.813 123.751 391.714 123.792 391.611 123.792Z" fill="#E6E6E6"/>
<path d="M125.269 137.393H89.0553C88.9521 137.393 88.853 137.353 88.78 137.28C88.707 137.207 88.666 137.108 88.666 137.005C88.666 136.902 88.707 136.803 88.78 136.73C88.853 136.657 88.9521 136.616 89.0553 136.616H125.269C125.372 136.616 125.471 136.657 125.544 136.73C125.617 136.803 125.658 136.902 125.658 137.005C125.658 137.108 125.617 137.207 125.544 137.28C125.471 137.353 125.372 137.393 125.269 137.393Z" fill="#E6E6E6"/>
<path d="M215.217 137.393H179.004C178.901 137.393 178.802 137.353 178.729 137.28C178.656 137.207 178.615 137.108 178.615 137.005C178.615 136.902 178.656 136.803 178.729 136.73C178.802 136.657 178.901 136.616 179.004 136.616H215.217C215.321 136.616 215.42 136.657 215.493 136.73C215.566 136.803 215.607 136.902 215.607 137.005C215.607 137.108 215.566 137.207 215.493 137.28C215.42 137.353 215.321 137.393 215.217 137.393Z" fill="#E6E6E6"/>
<path d="M305.166 137.393H268.953C268.85 137.393 268.751 137.353 268.678 137.28C268.605 137.207 268.564 137.108 268.564 137.005C268.564 136.902 268.605 136.803 268.678 136.73C268.751 136.657 268.85 136.616 268.953 136.616H305.166C305.27 136.616 305.369 136.657 305.442 136.73C305.515 136.803 305.556 136.902 305.556 137.005C305.556 137.108 305.515 137.207 305.442 137.28C305.369 137.353 305.27 137.393 305.166 137.393Z" fill="#E6E6E6"/>
<path d="M145.906 95.5771C145.906 88.7136 140.327 72.4268 133.446 72.4268C126.564 72.4268 120.985 88.7136 120.985 95.5771C120.985 98.8753 122.298 102.038 124.635 104.371C126.972 106.703 130.141 108.013 133.446 108.013C136.75 108.013 139.92 106.703 142.257 104.371C144.593 102.038 145.906 98.8753 145.906 95.5771H145.906Z" fill="#E6E6E6"/>
<path d="M142.791 95.5771C142.791 88.7136 137.212 72.4268 130.331 72.4268C123.449 72.4268 117.87 88.7136 117.87 95.5771C117.87 98.8753 119.183 102.038 121.52 104.371C123.856 106.703 127.026 108.013 130.331 108.013C133.635 108.013 136.805 106.703 139.141 104.371C141.478 102.038 142.791 98.8753 142.791 95.5771Z" fill="#F2F2F2"/>
<path d="M130.72 123.383C130.617 123.383 130.518 123.342 130.445 123.269C130.372 123.196 130.331 123.098 130.331 122.995V88.3526C130.331 88.2495 130.372 88.1506 130.445 88.0778C130.518 88.0049 130.617 87.9639 130.72 87.9639C130.823 87.9639 130.922 88.0049 130.995 88.0778C131.068 88.1506 131.109 88.2495 131.109 88.3526V122.995C131.109 123.098 131.068 123.196 130.995 123.269C130.922 123.342 130.823 123.383 130.72 123.383Z" fill="#CCCCCC"/>
<path d="M130.72 94.0316C130.643 94.0316 130.568 94.0088 130.504 93.9661C130.44 93.9234 130.39 93.8627 130.36 93.7917C130.331 93.7207 130.323 93.6425 130.338 93.5672C130.353 93.4918 130.39 93.4226 130.445 93.3682L135.537 88.2858C135.61 88.2129 135.709 88.1719 135.812 88.1719C135.915 88.1719 136.015 88.2129 136.088 88.2858C136.161 88.3586 136.202 88.4575 136.202 88.5605C136.202 88.6636 136.161 88.7624 136.088 88.8353L130.995 93.9177C130.959 93.9539 130.916 93.9826 130.869 94.0021C130.822 94.0216 130.771 94.0317 130.72 94.0316Z" fill="#CCCCCC"/>
<path d="M344.884 95.5771C344.884 88.7136 339.305 72.4268 332.423 72.4268C325.542 72.4268 319.963 88.7136 319.963 95.5771C319.963 98.8753 321.276 102.038 323.613 104.371C325.949 106.703 329.119 108.013 332.424 108.013C335.728 108.013 338.898 106.703 341.234 104.371C343.571 102.038 344.884 98.8753 344.884 95.5771H344.884Z" fill="#E6E6E6"/>
<path d="M341.769 95.5771C341.769 88.7136 336.19 72.4268 329.308 72.4268C322.427 72.4268 316.848 88.7136 316.848 95.5771C316.848 98.8753 318.161 102.038 320.497 104.371C322.834 106.703 326.004 108.013 329.308 108.013C332.613 108.013 335.782 106.703 338.119 104.371C340.456 102.038 341.769 98.8753 341.769 95.5771H341.769Z" fill="#F2F2F2"/>
<path d="M329.698 123.383C329.594 123.383 329.495 123.342 329.422 123.269C329.349 123.196 329.308 123.098 329.308 122.995V88.3526C329.308 88.2495 329.349 88.1506 329.422 88.0778C329.495 88.0049 329.594 87.9639 329.698 87.9639C329.801 87.9639 329.9 88.0049 329.973 88.0778C330.046 88.1506 330.087 88.2495 330.087 88.3526V122.995C330.087 123.098 330.046 123.196 329.973 123.269C329.9 123.342 329.801 123.383 329.698 123.383Z" fill="#CCCCCC"/>
<path d="M329.698 94.0316C329.621 94.0316 329.546 94.0088 329.481 93.9661C329.417 93.9234 329.368 93.8627 329.338 93.7917C329.309 93.7207 329.301 93.6425 329.316 93.5672C329.331 93.4918 329.368 93.4226 329.422 93.3682L334.515 88.2858C334.588 88.2129 334.687 88.1719 334.79 88.1719C334.893 88.1719 334.992 88.2129 335.065 88.2858C335.138 88.3586 335.179 88.4575 335.179 88.5605C335.179 88.6636 335.138 88.7624 335.065 88.8353L329.973 93.9177C329.937 93.9539 329.894 93.9826 329.847 94.0021C329.8 94.0216 329.749 94.0317 329.698 94.0316Z" fill="#CCCCCC"/>
<path d="M200.81 99.8914H192.243C191.985 99.8912 191.738 99.7887 191.555 99.6066C191.373 99.4244 191.27 99.1775 191.27 98.9199V90.3702C191.27 90.1126 191.373 89.8656 191.555 89.6834C191.738 89.5013 191.985 89.3989 192.243 89.3986H200.81C201.068 89.3989 201.316 89.5013 201.498 89.6834C201.681 89.8656 201.783 90.1126 201.783 90.3702V98.9199C201.783 99.1775 201.681 99.4244 201.498 99.6066C201.316 99.7887 201.068 99.8912 200.81 99.8914Z" fill="#3F3D56"/>
<path d="M283.97 104.055C284.064 104.079 284.151 104.124 284.225 104.186C284.3 104.248 284.36 104.325 284.401 104.412C284.442 104.5 284.464 104.595 284.464 104.691C284.464 104.788 284.443 104.884 284.403 104.971L286.096 106.601L284.903 106.868L283.478 105.279C283.335 105.201 283.226 105.074 283.171 104.921C283.116 104.768 283.119 104.6 283.179 104.449C283.24 104.298 283.354 104.175 283.5 104.102C283.645 104.029 283.813 104.013 283.97 104.055H283.97Z" fill="#FFB8B8"/>
<path d="M286.351 108.342L284.262 106.386C284.234 106.359 284.21 106.327 284.194 106.29C284.178 106.254 284.17 106.216 284.169 106.176C284.168 106.137 284.175 106.097 284.19 106.061C284.205 106.024 284.226 105.991 284.254 105.963L284.681 105.532C284.731 105.481 284.799 105.45 284.871 105.445C284.943 105.44 285.014 105.461 285.071 105.504L286.822 106.84L287.914 104.196C287.957 104.092 288.021 103.998 288.102 103.919C288.183 103.84 288.279 103.779 288.385 103.739C288.491 103.699 288.604 103.682 288.716 103.687C288.829 103.692 288.94 103.72 289.041 103.77C289.201 103.847 289.332 103.974 289.414 104.132C289.495 104.29 289.523 104.469 289.494 104.644C289.296 105.847 288.095 107.436 287.397 108.276C287.302 108.391 287.173 108.473 287.029 108.512C286.885 108.55 286.733 108.543 286.593 108.492C286.503 108.458 286.421 108.407 286.351 108.342Z" fill="#6C63FF"/>
<path d="M285.179 106.445L283.641 104.219C283.621 104.19 283.614 104.154 283.62 104.12C283.627 104.086 283.646 104.056 283.675 104.036L283.737 103.993C283.751 103.984 283.767 103.977 283.784 103.973C283.801 103.969 283.818 103.969 283.835 103.972C283.852 103.975 283.868 103.982 283.883 103.991C283.897 104.001 283.91 104.013 283.92 104.027L285.457 106.253C285.467 106.267 285.474 106.283 285.478 106.3C285.481 106.317 285.482 106.334 285.479 106.351C285.475 106.368 285.469 106.384 285.46 106.399C285.45 106.413 285.438 106.426 285.424 106.436L285.362 106.478C285.333 106.498 285.298 106.505 285.264 106.499C285.229 106.493 285.199 106.473 285.179 106.445Z" fill="white"/>
<path d="M284.749 106.461L283.473 104.614C283.418 104.535 283.398 104.437 283.415 104.343C283.432 104.249 283.486 104.166 283.565 104.111L283.695 104.022L285.383 106.464L285.253 106.553C285.174 106.608 285.076 106.629 284.982 106.611C284.887 106.594 284.804 106.54 284.749 106.461Z" fill="#3F3D56"/>
<path d="M284.904 122.406L284.102 122.314L284.208 119.199L285.26 119.321L284.904 122.406Z" fill="#FFB8B8"/>
<path d="M285.018 123.206L282.433 122.908L282.437 122.875C282.452 122.743 282.494 122.616 282.558 122.5C282.623 122.384 282.71 122.282 282.814 122.199C282.918 122.117 283.038 122.055 283.166 122.019C283.293 121.983 283.427 121.972 283.559 121.987H283.559L285.138 122.169L285.018 123.206Z" fill="#2F2E41"/>
<path d="M294.225 121.815L293.454 122.053L292.169 119.198L293.306 118.847L294.225 121.815Z" fill="#FFB8B8"/>
<path d="M294.653 122.5L292.167 123.267L292.157 123.235C292.118 123.108 292.104 122.975 292.116 122.843C292.129 122.711 292.167 122.582 292.229 122.465C292.291 122.348 292.376 122.244 292.478 122.159C292.58 122.074 292.699 122.01 292.826 121.971H292.826L294.344 121.503L294.653 122.5Z" fill="#2F2E41"/>
<path d="M284.008 121.688C283.927 121.663 283.859 121.607 283.818 121.533C283.777 121.458 283.766 121.371 283.789 121.289L284.272 115.737C284.294 115.484 284.374 115.239 284.505 115.021L287.431 110.176L290.048 110.646L290.065 110.653C291.337 111.43 292.466 115.201 293.559 118.847C293.729 119.414 293.904 120.001 294.076 120.561C294.108 120.641 294.107 120.73 294.074 120.81C294.041 120.889 293.977 120.953 293.898 120.986L293.106 121.319C293.03 121.351 292.946 121.354 292.869 121.327C292.792 121.3 292.728 121.246 292.689 121.174L288.615 113.73C288.61 113.72 288.602 113.712 288.593 113.706C288.585 113.7 288.575 113.697 288.564 113.696C288.553 113.694 288.543 113.696 288.533 113.699C288.523 113.703 288.514 113.709 288.508 113.717L286.143 116.388L285.274 121.477L285.27 121.488C285.239 121.561 285.182 121.62 285.111 121.654C285.039 121.689 284.958 121.696 284.881 121.675L284.029 121.691L284.024 121.691L284.008 121.688Z" fill="#2F2E41"/>
<path d="M287.289 110.707L287.272 110.702L287.267 110.686C287.255 110.645 286.059 106.604 287.137 104.029L287.138 104.026C287.17 103.965 287.922 102.523 288.796 102.378L288.819 102.375L289.103 102.905C289.192 102.994 290.729 104.587 290.032 107.325C290.094 107.55 290.943 110.633 290.482 111.094C290.313 111.209 290.109 111.261 289.906 111.238C289.016 111.162 288.138 110.984 287.289 110.707Z" fill="#8BC83F"/>
<path d="M288.615 101.873C289.742 101.873 290.656 100.962 290.656 99.8369C290.656 98.7122 289.742 97.8005 288.615 97.8005C287.488 97.8005 286.575 98.7122 286.575 99.8369C286.575 100.962 287.488 101.873 288.615 101.873Z" fill="#2F2E41"/>
<path d="M287.805 101.864C288.698 101.864 289.422 101.141 289.422 100.25C289.422 99.3591 288.698 98.6368 287.805 98.6368C286.912 98.6368 286.188 99.3591 286.188 100.25C286.188 101.141 286.912 101.864 287.805 101.864Z" fill="#FFB8B8"/>
<path d="M288.845 101.817C288.698 101.87 288.517 101.916 288.401 101.807C288.352 101.745 288.324 101.67 288.319 101.591C288.315 101.512 288.334 101.434 288.375 101.366C288.459 101.233 288.526 101.091 288.577 100.942C288.592 100.83 288.578 100.716 288.536 100.612C288.494 100.507 288.425 100.415 288.337 100.344C288.162 100.211 287.963 100.111 287.751 100.05L286.62 99.6488C286.325 99.5796 286.064 99.4108 285.881 99.1711C285.786 98.9715 285.77 98.7437 285.835 98.5327C285.901 98.3217 286.043 98.1427 286.233 98.031C286.426 97.9342 286.637 97.8818 286.852 97.8775C287.067 97.8733 287.281 97.9174 287.477 98.0065C287.693 98.107 287.914 98.1953 288.14 98.2712C288.593 98.3905 289.108 98.2835 289.506 98.5385C289.674 98.6657 289.808 98.8329 289.894 99.0248C289.981 99.2167 290.018 99.4272 290.002 99.6371C289.968 100.059 289.855 100.471 289.669 100.852C289.583 101.087 289.458 101.305 289.3 101.499C289.222 101.594 289.123 101.669 289.011 101.717C288.898 101.765 288.776 101.786 288.654 101.777L288.845 101.817Z" fill="#2F2E41"/>
<path d="M290.327 100.165C291.054 100.165 291.643 99.5771 291.643 98.8515C291.643 98.1259 291.054 97.5377 290.327 97.5377C289.6 97.5377 289.01 98.1259 289.01 98.8515C289.01 99.5771 289.6 100.165 290.327 100.165Z" fill="#2F2E41"/>
<path d="M288.155 100.757C288.155 100.733 288.161 100.709 288.173 100.689C288.186 100.668 288.203 100.652 288.224 100.641C288.245 100.629 288.269 100.624 288.293 100.625C288.317 100.626 288.34 100.634 288.36 100.647C288.38 100.661 288.395 100.679 288.406 100.701C288.416 100.722 288.42 100.746 288.417 100.77C288.415 100.794 288.406 100.816 288.391 100.835C288.377 100.855 288.358 100.869 288.336 100.878V101.167C288.336 101.174 288.334 101.18 288.332 101.186C288.33 101.192 288.326 101.198 288.321 101.202C288.317 101.207 288.311 101.211 288.305 101.213C288.299 101.216 288.293 101.217 288.286 101.217C288.28 101.217 288.273 101.216 288.267 101.213C288.261 101.211 288.256 101.207 288.251 101.202C288.247 101.198 288.243 101.192 288.241 101.186C288.238 101.18 288.237 101.174 288.237 101.167V100.878C288.213 100.868 288.192 100.852 288.177 100.83C288.163 100.808 288.155 100.783 288.155 100.757Z" fill="white"/>
<path d="M284.05 105.434C284.146 105.424 284.244 105.436 284.335 105.468C284.426 105.5 284.509 105.551 284.579 105.619C284.648 105.687 284.701 105.768 284.735 105.859C284.769 105.949 284.783 106.046 284.776 106.142L286.932 107.081L285.907 107.746L284.017 106.753C283.855 106.729 283.708 106.648 283.603 106.524C283.498 106.399 283.442 106.241 283.447 106.078C283.451 105.916 283.514 105.76 283.626 105.642C283.737 105.523 283.888 105.449 284.05 105.434Z" fill="#FFB8B8"/>
<path d="M287.779 108.624L285.138 107.517C285.102 107.502 285.069 107.48 285.041 107.451C285.013 107.423 284.992 107.39 284.977 107.353C284.963 107.316 284.956 107.277 284.957 107.238C284.958 107.198 284.967 107.159 284.983 107.123L285.232 106.571C285.262 106.505 285.314 106.453 285.38 106.423C285.445 106.393 285.52 106.389 285.589 106.41L287.695 107.052L287.796 104.195C287.8 104.082 287.827 103.971 287.875 103.869C287.924 103.767 287.993 103.677 288.078 103.602C288.163 103.528 288.263 103.472 288.37 103.438C288.478 103.404 288.592 103.392 288.704 103.403C288.881 103.42 289.048 103.493 289.179 103.613C289.311 103.732 289.4 103.891 289.433 104.065C289.667 105.261 289.097 107.168 288.737 108.199C288.687 108.339 288.595 108.461 288.474 108.547C288.352 108.633 288.207 108.68 288.058 108.68C287.962 108.68 287.867 108.661 287.779 108.624Z" fill="#8BC83F"/>
<path d="M17.0174 107.948H12.9732V106.722C14.2512 105.835 15.3834 105.912 16.873 106.794L17.0174 107.948Z" fill="#6C63FF"/>
<path d="M12.0368 129.711H11.1513L11.0189 126.303H12.0368V129.711Z" fill="#FFB8B8"/>
<path d="M12.2624 130.568L9.40765 130.568V130.532C9.40765 130.386 9.43639 130.242 9.49223 130.107C9.54807 129.973 9.62992 129.85 9.73311 129.747C9.83629 129.644 9.95879 129.563 10.0936 129.507C10.2284 129.451 10.3729 129.423 10.5188 129.423H10.5189L12.2625 129.423L12.2624 130.568Z" fill="#2F2E41"/>
<path d="M17.0237 129.711H17.9088L18.0412 126.303H17.0233L17.0237 129.711Z" fill="#FFB8B8"/>
<path d="M16.7977 129.423L18.5413 129.423H18.5414C18.6873 129.423 18.8318 129.451 18.9666 129.507C19.1014 129.563 19.2239 129.644 19.3271 129.747C19.4303 129.85 19.5122 129.973 19.568 130.107C19.6238 130.242 19.6526 130.386 19.6526 130.532V130.568L16.7978 130.568L16.7977 129.423Z" fill="#2F2E41"/>
<path d="M17.0468 129.274C16.973 129.274 16.9014 129.249 16.8437 129.203C16.7861 129.157 16.7458 129.092 16.7295 129.02L14.5351 119.468C14.5303 119.443 14.517 119.422 14.4977 119.406C14.4783 119.391 14.4541 119.382 14.4293 119.383H14.4288C14.4039 119.383 14.3797 119.391 14.3604 119.407C14.3411 119.422 14.3279 119.444 14.3233 119.469L12.3081 128.957C12.2924 129.03 12.2523 129.095 12.1945 129.141C12.1367 129.188 12.0646 129.214 11.9902 129.214H11.0302C10.986 129.214 10.9421 129.205 10.9015 129.188C10.8608 129.17 10.8241 129.144 10.7938 129.112C10.7634 129.08 10.7399 129.042 10.7248 129.001C10.7097 128.959 10.7032 128.915 10.7058 128.871L11.4208 116.844L11.7086 116.76L11.714 116.76L17.3656 116.809L18.5692 128.822C18.5734 128.865 18.5691 128.908 18.5563 128.949C18.5436 128.99 18.5228 129.028 18.4951 129.061C18.4675 129.094 18.4335 129.122 18.3952 129.141C18.3568 129.161 18.315 129.173 18.272 129.177L17.0729 129.273C17.0641 129.274 17.0555 129.274 17.0468 129.274Z" fill="#2F2E41"/>
<path d="M14.7129 105.752C15.6926 105.752 16.4867 104.959 16.4867 103.981C16.4867 103.004 15.6926 102.211 14.7129 102.211C13.7333 102.211 12.9392 103.004 12.9392 103.981C12.9392 104.959 13.7333 105.752 14.7129 105.752Z" fill="#FFB8B8"/>
<path d="M13.6263 118.163C13.3152 118.167 13.0052 118.123 12.7072 118.034C12.4421 117.954 12.1962 117.821 11.9846 117.643C11.773 117.465 11.6002 117.245 11.4767 116.998C11.4376 116.923 11.429 116.837 11.4525 116.756C11.6482 116.09 12.5935 112.626 11.9903 109.873C11.9052 109.49 11.8981 109.094 11.9695 108.709C12.0409 108.324 12.1894 107.957 12.406 107.63C12.6175 107.306 12.8923 107.027 13.214 106.812C13.5357 106.596 13.8977 106.447 14.2783 106.373V106.373C14.3784 106.354 14.479 106.338 14.5773 106.326C14.9981 106.274 15.4251 106.316 15.8278 106.448C16.2305 106.58 16.599 106.8 16.9068 107.091C17.2238 107.387 17.4712 107.75 17.6312 108.153C17.7912 108.557 17.8599 108.99 17.8324 109.423L17.3688 116.847C17.3656 116.903 17.348 116.956 17.3176 117.003C17.2873 117.05 17.2452 117.088 17.1957 117.114C16.6618 117.393 15.058 118.163 13.6263 118.163Z" fill="#3F3D56"/>
<path d="M16.7167 102.678C16.5325 102.216 16.195 101.831 15.7605 101.587C15.3261 101.343 14.8211 101.256 14.3297 101.339L14.889 101.79C14.1941 101.813 13.4627 101.764 12.9666 102.25C13.1245 102.245 13.3315 102.582 13.4895 102.578C13.3417 102.588 13.1994 102.638 13.0774 102.722C12.9554 102.806 12.8582 102.921 12.796 103.055C12.6752 103.327 12.6469 103.631 12.7155 103.92C12.8945 104.346 13.1027 104.758 13.3385 105.155C13.3179 104.451 14.707 102.772 15.3853 102.947C15.0407 103.075 14.7416 103.301 14.5259 103.598C14.9873 103.366 15.5092 103.28 16.0209 103.354C16.1377 103.381 16.2582 103.387 16.3773 103.374C16.4502 103.36 16.5183 103.327 16.5749 103.279C16.6316 103.23 16.6749 103.169 16.7008 103.099C16.7266 103.029 16.7342 102.954 16.7227 102.881C16.7113 102.808 16.6811 102.738 16.6352 102.68L16.7167 102.678Z" fill="#2F2E41"/>
<path d="M13.5042 117.717C13.4594 117.717 13.4151 117.708 13.374 117.69L10.0087 116.224C9.93717 116.193 9.87916 116.138 9.84528 116.068C9.8114 115.998 9.80394 115.918 9.82427 115.843L12.0522 107.444C12.0936 107.288 12.1658 107.141 12.2647 107.013C12.3635 106.885 12.4869 106.778 12.6278 106.698C12.7686 106.618 12.924 106.567 13.0848 106.548C13.2456 106.528 13.4087 106.541 13.5645 106.586L14.4553 106.84L13.8282 117.412C13.8249 117.464 13.8092 117.514 13.7822 117.559C13.7552 117.604 13.7178 117.642 13.6732 117.669C13.6224 117.7 13.5639 117.717 13.5042 117.717Z" fill="#1F4C6B"/>
<path d="M19.7328 115.843L19.5847 115.286L19.3702 114.476L19.2669 114.088L19.0525 113.28L17.5048 107.444C17.4636 107.287 17.3914 107.141 17.2926 107.013C17.1938 106.885 17.0703 106.777 16.9295 106.697C16.7886 106.618 16.6332 106.567 16.4723 106.547C16.3114 106.528 16.1483 106.541 15.9926 106.586L15.1022 106.84L15.5434 114.276L15.5889 115.052L15.6178 115.541V115.542L15.664 116.314L15.729 117.412C15.7343 117.494 15.7707 117.572 15.8309 117.628C15.8911 117.685 15.9705 117.717 16.0533 117.717C16.098 117.717 16.1423 117.708 16.1833 117.69L19.5486 116.224C19.6201 116.193 19.6782 116.138 19.712 116.068C19.7459 115.998 19.7532 115.918 19.7328 115.843Z" fill="#1F4C6B"/>
<path d="M19.2669 114.088L15.5888 115.052L15.5432 114.276L19.0524 113.279L19.2669 114.088Z" fill="#CCCCCC"/>
<path d="M19.5847 115.286L15.664 116.314L15.6176 115.542V115.541L19.3702 114.476L19.5847 115.286Z" fill="#CCCCCC"/>
<path d="M13.9685 114.443L13.923 115.205L10.3157 114.132L10.5271 113.335L13.9685 114.443Z" fill="#CCCCCC"/>
<path d="M13.8934 115.706L10.2125 114.521L10.0007 115.32L13.8486 116.464L13.8934 115.706Z" fill="#CCCCCC"/>
<path d="M10.2765 116.503C10.3862 116.475 10.4884 116.422 10.5757 116.35C10.663 116.278 10.7334 116.187 10.7819 116.085C10.8304 115.983 10.8558 115.871 10.8564 115.758C10.8569 115.645 10.8326 115.533 10.7852 115.43L12.5156 110.008L11.2886 109.751L9.70201 115.067C9.53426 115.158 9.40579 115.308 9.34095 115.487C9.27612 115.666 9.27942 115.863 9.35023 116.04C9.42104 116.217 9.55445 116.362 9.72516 116.447C9.89588 116.533 10.092 116.552 10.2765 116.503V116.503Z" fill="#FFB8B8"/>
<path d="M12.5637 107.343C12.916 107.378 13.1142 107.774 13.0266 108.266L12.6062 110.629C12.5747 110.806 12.4286 110.946 12.3073 110.916L10.8853 110.561C10.7759 110.534 10.7355 110.378 10.7976 110.223L11.6512 108.086C11.709 107.884 11.8274 107.704 11.9905 107.571C12.1537 107.438 12.3537 107.359 12.5637 107.343Z" fill="#234F68"/>
<path d="M14.7064 100.668C15.3067 100.668 15.8834 100.901 16.3144 101.318C16.7454 101.735 16.9969 102.303 17.0155 102.902H17.4507C17.489 102.902 17.5257 102.917 17.5528 102.944C17.5799 102.972 17.5951 103.008 17.5951 103.046V103.623C17.5951 103.661 17.5799 103.698 17.5528 103.725C17.5257 103.752 17.489 103.767 17.4507 103.767H12.5399C12.5016 103.767 12.4648 103.752 12.4378 103.725C12.4107 103.698 12.3954 103.661 12.3954 103.623V102.974C12.3954 102.671 12.4552 102.372 12.5714 102.092C12.6875 101.812 12.8577 101.558 13.0723 101.343C13.2869 101.129 13.5417 100.959 13.822 100.843C14.1024 100.728 14.4029 100.668 14.7064 100.668Z" fill="#1F4C6B"/>
<path d="M14.9825 114.925H13.9617C13.9289 114.925 13.8973 114.913 13.8731 114.891C13.8488 114.869 13.8336 114.839 13.8306 114.806L13.6262 112.716H15.318L15.1137 114.806C15.1106 114.839 15.0954 114.869 15.0712 114.891C15.0469 114.913 15.0153 114.925 14.9825 114.925Z" fill="#E6E6E6"/>
<path d="M15.3153 112.979H13.6289C13.594 112.979 13.5605 112.965 13.5358 112.94C13.5111 112.916 13.4972 112.882 13.4972 112.847V112.532C13.4972 112.497 13.5111 112.463 13.5358 112.439C13.5605 112.414 13.594 112.4 13.6289 112.4H15.3153C15.3502 112.4 15.3837 112.414 15.4084 112.439C15.4331 112.463 15.447 112.497 15.4471 112.532V112.847C15.447 112.882 15.4331 112.916 15.4084 112.94C15.3837 112.965 15.3502 112.979 15.3153 112.979Z" fill="#CCCCCC"/>
<path d="M14.494 113.804C14.5337 113.808 14.573 113.816 14.6115 113.827L17.3302 111.5L17.1713 110.646L18.431 110.238L18.8595 111.722C18.8941 111.842 18.8888 111.97 18.8444 112.087C18.8 112.204 18.7189 112.303 18.6133 112.369L15.1701 114.544C15.1725 114.698 15.1281 114.848 15.0426 114.976C14.9571 115.104 14.8347 115.203 14.6916 115.259C14.5485 115.316 14.3915 115.328 14.2415 115.293C14.0915 115.258 13.9556 115.179 13.8519 115.066C13.7482 114.952 13.6816 114.81 13.6609 114.657C13.6403 114.505 13.6665 114.35 13.7362 114.213C13.8059 114.076 13.9158 113.964 14.0512 113.891C14.1865 113.817 14.341 113.787 14.4941 113.804H14.494Z" fill="#FFB8B8"/>
<path d="M17.3373 107.538C17.7136 107.433 18.0897 107.718 18.2157 108.206L18.8204 110.543C18.8658 110.718 18.7777 110.904 18.6402 110.924L17.0293 111.155C16.9053 111.173 16.7961 111.046 16.7916 110.879L16.729 108.579C16.7051 108.363 16.7513 108.146 16.8608 107.958C16.9703 107.771 17.1374 107.623 17.3373 107.538Z" fill="#1F4C6B"/>
<path d="M35.6485 113.861H34.422C34.3826 113.861 34.3446 113.847 34.3155 113.82C34.2863 113.794 34.2681 113.758 34.2644 113.719L34.0189 111.207H36.0515L35.806 113.719C35.8023 113.758 35.7841 113.794 35.7549 113.82C35.7258 113.847 35.6878 113.861 35.6485 113.861Z" fill="#E6E6E6"/>
<path d="M36.0483 111.523H34.0222C33.9802 111.523 33.94 111.506 33.9103 111.477C33.8806 111.447 33.8639 111.407 33.8639 111.365V110.986C33.8639 110.944 33.8806 110.904 33.9103 110.874C33.94 110.845 33.9802 110.828 34.0222 110.828H36.0483C36.0902 110.828 36.1305 110.845 36.1601 110.874C36.1898 110.904 36.2065 110.944 36.2065 110.986V111.365C36.2065 111.407 36.1898 111.447 36.1601 111.477C36.1304 111.506 36.0902 111.523 36.0483 111.523Z" fill="#CCCCCC"/>
<path d="M47.6981 128.61C46.807 127.427 46.1026 126.114 45.6092 124.719C45.5806 124.635 45.5827 124.544 45.615 124.462C45.6472 124.38 45.7077 124.312 45.7855 124.27L48.8349 122.639C48.8842 122.613 48.939 122.598 48.995 122.596C49.051 122.593 49.1068 122.604 49.1581 122.626C49.2104 122.649 49.2568 122.683 49.2938 122.727C49.3308 122.77 49.3575 122.821 49.3717 122.876C49.7266 124.221 50.3938 125.464 51.3192 126.504C51.3573 126.546 51.3852 126.596 51.4008 126.651C51.4164 126.706 51.4193 126.763 51.4093 126.819C51.3996 126.875 51.3775 126.927 51.3446 126.972C51.3116 127.017 51.2688 127.054 51.2193 127.081L48.1699 128.711C48.0919 128.753 48.0017 128.765 47.9153 128.747C47.8289 128.728 47.7519 128.68 47.6981 128.61Z" fill="#CCCCCC"/>
<path d="M47.9062 128.453C47.9226 128.474 47.9457 128.488 47.9713 128.493C47.997 128.499 48.0238 128.495 48.047 128.482L51.0963 126.852C51.1112 126.844 51.124 126.833 51.1338 126.82C51.1436 126.806 51.1502 126.79 51.153 126.774C51.1562 126.757 51.1553 126.739 51.1504 126.722C51.1455 126.705 51.1367 126.689 51.1248 126.676C50.1721 125.606 49.4853 124.327 49.1199 122.942C49.1157 122.925 49.1075 122.909 49.0961 122.896C49.0847 122.882 49.0703 122.871 49.0541 122.865C49.0389 122.858 49.0222 122.855 49.0055 122.855C48.9888 122.856 48.9725 122.86 48.9578 122.868L45.9085 124.499C45.8854 124.512 45.8674 124.532 45.8575 124.556C45.8477 124.58 45.8467 124.607 45.8547 124.632C46.3392 126.003 47.0311 127.292 47.9062 128.453Z" fill="white"/>
<path d="M49.0351 124.967L47.3742 125.698C47.3111 125.726 47.2395 125.728 47.1751 125.703C47.1108 125.678 47.0589 125.629 47.031 125.566L46.9899 125.473C46.9621 125.41 46.9605 125.338 46.9854 125.274C47.0104 125.21 47.0598 125.158 47.1229 125.13L48.7837 124.398C48.8469 124.371 48.9185 124.369 48.9829 124.394C49.0472 124.419 49.099 124.468 49.127 124.531L49.1681 124.624C49.1959 124.687 49.1975 124.759 49.1725 124.823C49.1476 124.887 49.0982 124.939 49.0351 124.967Z" fill="#CCCCCC"/>
<path d="M49.6424 126.092L47.9816 126.824C47.9184 126.852 47.8468 126.853 47.7825 126.829C47.7181 126.804 47.6663 126.754 47.6383 126.691L47.5973 126.598C47.5695 126.535 47.5679 126.464 47.5928 126.4C47.6177 126.335 47.6672 126.284 47.7303 126.256L49.3911 125.524C49.4543 125.496 49.5259 125.495 49.5902 125.52C49.6546 125.545 49.7064 125.594 49.7343 125.657L49.7754 125.75C49.8032 125.813 49.8048 125.884 49.7799 125.949C49.755 126.013 49.7055 126.064 49.6424 126.092Z" fill="#CCCCCC"/>
<path d="M45.7473 125.154C45.6327 125.081 45.5356 124.983 45.463 124.868C45.3903 124.753 45.3438 124.623 45.3268 124.488C45.3097 124.354 45.3225 124.217 45.3642 124.087C45.406 123.958 45.4756 123.839 45.5683 123.739L44.8679 113.819L46.8855 114.014L46.9409 123.729C47.0983 123.896 47.1891 124.114 47.196 124.343C47.203 124.572 47.1255 124.795 46.9784 124.971C46.8312 125.147 46.6247 125.262 46.3978 125.296C46.1709 125.33 45.9394 125.28 45.7473 125.154Z" fill="#A0616A"/>
<path d="M45.3246 117.152C45.2773 117.118 45.2383 117.074 45.2104 117.023C45.1825 116.972 45.1664 116.916 45.1633 116.858L45.0155 114.184C45.0009 113.919 45.085 113.658 45.2517 113.452C45.4184 113.245 45.6559 113.107 45.9183 113.065C46.1807 113.023 46.4496 113.079 46.6729 113.223C46.8963 113.367 47.0583 113.588 47.1279 113.844L47.7773 116.235C47.8043 116.334 47.7905 116.441 47.739 116.53C47.6875 116.62 47.6025 116.686 47.5026 116.713L45.6554 117.213C45.5992 117.228 45.5404 117.23 45.4831 117.22C45.4259 117.21 45.3717 117.186 45.3246 117.152Z" fill="#3F3D56"/>
<path d="M41.8858 137.35L40.8224 137.35L40.3162 133.255H41.8862L41.8858 137.35Z" fill="#A0616A"/>
<path d="M39.8249 137.047H42.1139V138.336H38.7708V138.099C38.7708 137.961 38.7981 137.824 38.851 137.696C38.904 137.569 38.9817 137.453 39.0796 137.355C39.1774 137.257 39.2936 137.18 39.4215 137.127C39.5494 137.074 39.6865 137.047 39.8249 137.047Z" fill="#2F2E41"/>
<path d="M45.877 137.35L44.8136 137.35L44.3074 133.255H45.8774L45.877 137.35Z" fill="#A0616A"/>
<path d="M43.8161 137.047H46.1051V138.336H42.762V138.099C42.762 137.961 42.7892 137.824 42.8422 137.696C42.8952 137.569 42.9728 137.453 43.0707 137.355C43.1686 137.257 43.2848 137.18 43.4127 137.127C43.5406 137.074 43.6776 137.047 43.8161 137.047Z" fill="#2F2E41"/>
<path d="M41.8357 135.287L40.6647 135.231C40.565 135.227 40.4708 135.184 40.4017 135.112C40.3325 135.04 40.2936 134.945 40.2929 134.845C39.9842 130.089 39.5566 124.99 40.2112 123.02C40.2108 122.964 40.2225 122.908 40.2456 122.857C40.2688 122.806 40.3027 122.76 40.3451 122.724C40.3875 122.687 40.4374 122.659 40.4913 122.644C40.5453 122.628 40.602 122.624 40.6577 122.632L45.3424 123.31C45.435 123.323 45.5198 123.369 45.5812 123.439C45.6426 123.51 45.6765 123.6 45.6768 123.693C46.2749 126.026 46.3019 130.255 46.2793 134.65C46.2797 134.702 46.2699 134.753 46.2504 134.8C46.231 134.848 46.2023 134.891 46.166 134.928C46.1297 134.964 46.0865 134.993 46.0389 135.013C45.9914 135.033 45.9404 135.043 45.8888 135.043H44.6264C44.5333 135.043 44.4431 135.01 44.3723 134.95C44.3015 134.889 44.2548 134.806 44.2407 134.714L43.4618 129.772C43.4504 129.7 43.4132 129.634 43.3571 129.587C43.3009 129.54 43.2296 129.515 43.1562 129.516C43.0829 129.517 43.0126 129.545 42.9582 129.594C42.9038 129.643 42.869 129.71 42.8603 129.783L42.242 134.944C42.2304 135.039 42.1846 135.126 42.1132 135.189C42.0418 135.252 41.9497 135.287 41.8543 135.288C41.8481 135.288 41.842 135.288 41.8357 135.287Z" fill="#2F2E41"/>
<path d="M42.6601 123.694C41.9763 123.293 41.2185 123.034 40.432 122.932C40.3803 122.927 40.3302 122.912 40.2846 122.887C40.2391 122.862 40.1991 122.828 40.167 122.787C40.1343 122.746 40.1103 122.699 40.0964 122.648C40.0825 122.597 40.079 122.545 40.0862 122.493L41.2088 114.175C41.2734 113.689 41.4617 113.227 41.7558 112.833C42.0499 112.44 42.4399 112.128 42.8888 111.927C43.3234 111.728 43.8018 111.643 44.2786 111.68C44.7554 111.718 45.2148 111.876 45.6129 112.14C45.6513 112.166 45.6891 112.192 45.7261 112.219C46.1846 112.554 46.5334 113.017 46.7285 113.55C46.9236 114.083 46.9563 114.661 46.8225 115.213C46.1342 118.023 45.8977 122.63 45.8573 123.525C45.8541 123.602 45.8284 123.675 45.7833 123.737C45.7383 123.799 45.6759 123.846 45.6041 123.872C45.1806 124.026 44.7337 124.105 44.2831 124.107C43.7155 124.11 43.1566 123.968 42.6601 123.694Z" fill="#3F3D56"/>
<path d="M43.5991 110.798C44.776 110.798 45.7301 109.846 45.7301 108.671C45.7301 107.497 44.776 106.544 43.5991 106.544C42.4221 106.544 41.468 107.497 41.468 108.671C41.468 109.846 42.4221 110.798 43.5991 110.798Z" fill="#A0616A"/>
<path d="M45.1071 110.354C45.018 110.45 44.9033 110.518 44.7765 110.551C44.6498 110.584 44.5162 110.581 44.3914 110.541C44.2667 110.501 44.156 110.426 44.0724 110.325C43.9888 110.224 43.9357 110.102 43.9194 109.972C43.9153 109.927 43.9156 109.882 43.9203 109.838C43.9979 109.592 44.0447 109.337 44.0596 109.08C44.0516 109.012 44.0265 108.948 43.9867 108.893C43.6699 108.47 42.9263 109.083 42.6273 108.7C42.4439 108.465 42.6595 108.094 42.5188 107.832C42.3331 107.485 41.7831 107.656 41.4382 107.466C41.0545 107.255 41.0774 106.667 41.33 106.31C41.4944 106.099 41.7035 105.926 41.9423 105.805C42.1811 105.684 42.4438 105.616 42.7116 105.608C43.2479 105.595 43.7805 105.699 44.2727 105.912C44.854 106.101 45.3669 106.456 45.7478 106.933C45.9448 107.246 46.0697 107.598 46.1134 107.965C46.157 108.332 46.1184 108.704 46.0002 109.055C45.7918 109.542 45.4882 109.984 45.1071 110.354Z" fill="#2F2E41"/>
<path d="M46.7947 112.422C46.7574 112.247 46.4372 112.008 45.9791 111.813C45.2427 111.515 44.4463 111.395 43.6548 111.463C42.8632 111.531 42.0988 111.784 41.424 112.203C41.3769 112.205 41.3319 112.223 41.296 112.254C41.2601 112.284 41.2353 112.325 41.2253 112.371L39.6843 119.173L39.4839 120.059L39.3511 120.645L39.1507 121.529L39.044 122.001C39.0372 122.031 39.0369 122.062 39.0431 122.092C39.0494 122.123 39.0621 122.151 39.0803 122.176C39.0985 122.201 39.1219 122.222 39.1489 122.237C39.1758 122.253 39.2057 122.262 39.2366 122.265L45.8906 122.838C45.8967 122.838 45.9036 122.839 45.9097 122.839C45.9646 122.839 46.0173 122.818 46.0572 122.78C46.0972 122.742 46.1213 122.691 46.1249 122.636L46.1882 121.674L46.2559 120.645L46.2854 120.2L46.3522 119.173L46.7955 112.433V112.427L46.7947 112.422Z" fill="#1F4C6B"/>
<path d="M35.8766 112.85C35.8872 112.897 35.8942 112.944 35.8974 112.992L39.6246 115.138L40.5305 114.617L41.4963 115.879L39.5582 117.258L35.3061 113.91C35.1326 113.974 34.9438 113.984 34.7646 113.938C34.5854 113.892 34.4244 113.793 34.3031 113.654C34.1817 113.515 34.1056 113.342 34.085 113.159C34.0644 112.975 34.1003 112.79 34.1878 112.627C34.2753 112.465 34.4103 112.333 34.5749 112.248C34.7395 112.164 34.9258 112.132 35.1092 112.156C35.2925 112.181 35.4641 112.26 35.6012 112.384C35.7383 112.508 35.8343 112.67 35.8766 112.85V112.85Z" fill="#A0616A"/>
<path d="M39.7577 114.955C39.7515 114.898 39.7584 114.839 39.7778 114.784C39.7972 114.73 39.8287 114.68 39.8699 114.639L41.7669 112.745C41.9548 112.558 42.2057 112.446 42.4712 112.432C42.7366 112.418 42.9978 112.503 43.2044 112.67C43.4111 112.837 43.5484 113.074 43.5901 113.336C43.6317 113.598 43.5747 113.866 43.43 114.089L42.0791 116.167C42.0226 116.253 41.9341 116.314 41.8328 116.335C41.7316 116.357 41.6259 116.337 41.539 116.281L39.9335 115.241C39.8846 115.21 39.8435 115.168 39.813 115.118C39.7826 115.069 39.7637 115.013 39.7577 114.955Z" fill="#1F4C6B"/>
<path d="M46.3521 119.173L46.2855 120.2L39.4836 120.059L39.6842 119.173H46.3521Z" fill="#CCCCCC"/>
<path d="M46.2559 120.645L46.1882 121.674L39.1508 121.529L39.3513 120.645H46.2559Z" fill="#CCCCCC"/>
<path d="M43.6408 104.539C42.9195 104.539 42.2266 104.819 41.7088 105.32C41.191 105.821 40.8889 106.504 40.8665 107.223H40.3437C40.2977 107.223 40.2535 107.242 40.221 107.274C40.1885 107.307 40.1702 107.351 40.1702 107.397V108.089C40.1702 108.135 40.1885 108.179 40.221 108.212C40.2535 108.244 40.2977 108.263 40.3437 108.263H46.2437C46.2897 108.263 46.3339 108.244 46.3664 108.212C46.399 108.179 46.4172 108.135 46.4172 108.089V107.31C46.4172 106.946 46.3454 106.586 46.2059 106.25C46.0664 105.913 45.8619 105.608 45.604 105.351C45.3462 105.093 45.0401 104.889 44.7033 104.75C44.3664 104.611 44.0054 104.539 43.6408 104.539Z" fill="#1F4C6B"/>
<path d="M59.267 132.73H58.6719C58.6681 132.658 57.8692 130.787 57.8692 130.787L57.3863 129.621L57.067 128.844L56.5841 127.678L56.0312 126.337C56.017 126.277 55.9828 126.223 55.934 126.184C55.8852 126.145 55.8248 126.124 55.7625 126.124C55.7003 126.124 55.6398 126.145 55.591 126.184C55.5423 126.223 55.508 126.277 55.4939 126.337L54.941 127.678L54.458 128.844L54.1388 129.621L53.6559 130.787C53.6559 130.787 52.8569 132.658 52.8531 132.73H52.258C52.1031 132.73 51.9546 132.791 51.845 132.901C51.7355 133.01 51.674 133.158 51.674 133.313C51.674 133.467 51.7355 133.616 51.845 133.725C51.9546 133.834 52.1031 133.896 52.258 133.896H59.267C59.4219 133.896 59.5705 133.834 59.68 133.725C59.7896 133.616 59.8511 133.467 59.8511 133.313C59.8511 133.158 59.7896 133.01 59.68 132.901C59.5705 132.791 59.4219 132.73 59.267 132.73Z" fill="#FF6584"/>
<path d="M58.8777 142.834H58.647C58.6681 142.784 57.6433 140.168 57.6433 140.168L57.0281 138.672L56.6153 137.669L56 136.173L55.3304 134.553C55.3115 134.476 55.2675 134.408 55.2054 134.359C55.1433 134.311 55.0666 134.284 54.9877 134.284C54.9087 134.284 54.8321 134.311 54.7699 134.359C54.7078 134.408 54.6638 134.476 54.645 134.553L53.9753 136.173L53.3601 137.669L52.9433 138.672L52.3282 140.168C52.3282 140.168 51.3072 142.784 51.3283 142.834H51.0899C50.935 142.834 50.7864 142.896 50.6769 143.005C50.5673 143.114 50.5058 143.262 50.5058 143.417C50.5058 143.572 50.5673 143.72 50.6769 143.829C50.7864 143.939 50.935 144 51.0899 144H58.8777C59.0326 144 59.1811 143.939 59.2907 143.829C59.4002 143.72 59.4617 143.572 59.4617 143.417C59.4617 143.262 59.4002 143.114 59.2907 143.005C59.1811 142.896 59.0326 142.834 58.8777 142.834Z" fill="#FF6584"/>
<path d="M57.0669 128.844H54.458L54.9408 127.678H56.5841L57.0669 128.844Z" fill="#F2F2F2"/>
<path d="M57.8691 130.787H53.6559L54.1387 129.621H57.3862L57.8691 130.787Z" fill="#F2F2F2"/>
<path d="M56.6152 137.669H53.3599L53.9752 136.173H56L56.6152 137.669Z" fill="#F2F2F2"/>
<path d="M57.6432 140.168H52.3281L52.9433 138.672H57.028L57.6432 140.168Z" fill="#F2F2F2"/>
<path d="M144.81 110.48C144.87 110.42 144.916 110.349 144.946 110.269C144.975 110.19 144.987 110.106 144.98 110.022C144.973 109.937 144.947 109.856 144.905 109.783C144.863 109.709 144.806 109.646 144.737 109.598L144.445 107.675L143.245 108.052L143.902 109.767C143.828 109.888 143.801 110.033 143.826 110.173C143.851 110.312 143.927 110.438 144.039 110.526C144.151 110.614 144.291 110.658 144.433 110.649C144.575 110.641 144.709 110.58 144.81 110.48Z" fill="#FFB8B8"/>
<path d="M143.574 109.576L142.833 106.125C142.761 105.795 142.775 105.451 142.874 105.128C142.973 104.804 143.154 104.512 143.399 104.278C144.346 103.366 145.564 102.218 145.985 101.921C146.38 101.64 146.857 101.499 147.342 101.521L147.352 101.522L147.989 102.123L146.601 104.402L144.496 105.718L144.73 109.1L143.574 109.576Z" fill="#8BC83F"/>
<path d="M146.166 104.887H143.06C142.925 104.887 142.816 104.996 142.816 105.13C142.816 105.264 142.925 105.373 143.06 105.373H146.166C146.301 105.373 146.41 105.264 146.41 105.13C146.41 104.996 146.301 104.887 146.166 104.887Z" fill="#CCCCCC"/>
<path d="M146.166 110.176H143.06C142.925 110.176 142.816 110.284 142.816 110.419C142.816 110.553 142.925 110.662 143.06 110.662H146.166C146.301 110.662 146.41 110.553 146.41 110.419C146.41 110.284 146.301 110.176 146.166 110.176Z" fill="#CCCCCC"/>
<path d="M144.643 123.428C144.613 123.428 144.584 123.416 144.561 123.396C144.539 123.375 144.525 123.347 144.522 123.317L142.969 105.141C142.968 105.125 142.969 105.109 142.974 105.094C142.979 105.078 142.987 105.064 142.997 105.052C143.007 105.04 143.02 105.029 143.034 105.022C143.048 105.015 143.064 105.01 143.08 105.009C143.096 105.007 143.112 105.009 143.127 105.014C143.142 105.019 143.156 105.026 143.169 105.037C143.181 105.047 143.191 105.06 143.198 105.074C143.206 105.088 143.21 105.103 143.212 105.119L144.642 121.913L146.031 105.12C146.032 105.104 146.037 105.088 146.044 105.074C146.051 105.06 146.061 105.047 146.074 105.037C146.086 105.026 146.1 105.019 146.115 105.014C146.131 105.009 146.147 105.007 146.163 105.008C146.179 105.01 146.194 105.014 146.208 105.022C146.223 105.029 146.235 105.039 146.246 105.051C146.256 105.064 146.264 105.078 146.269 105.093C146.273 105.108 146.275 105.125 146.274 105.141L144.765 123.317C144.762 123.347 144.748 123.375 144.726 123.396C144.703 123.416 144.674 123.428 144.644 123.428L144.643 123.428Z" fill="#CCCCCC"/>
<path d="M148.13 100.793C149.012 100.793 149.728 100.079 149.728 99.1984C149.728 98.3175 149.012 97.6034 148.13 97.6034C147.247 97.6034 146.531 98.3175 146.531 99.1984C146.531 100.079 147.247 100.793 148.13 100.793Z" fill="#FFB8B8"/>
<path d="M143.366 122.699L142.606 122.457L143.179 119.416L144.301 119.773L143.366 122.699Z" fill="#FFB8B8"/>
<path d="M143.324 123.372L140.877 122.593L140.898 122.53C140.975 122.287 141.146 122.085 141.373 121.968C141.6 121.851 141.864 121.829 142.107 121.906L143.637 122.393L143.324 123.372Z" fill="#2F2E41"/>
<path d="M148.897 122.683H148.099L147.719 119.612H148.897V122.683Z" fill="#FFB8B8"/>
<path d="M146.591 123.392H149.037V122.486H147.493C147.253 122.486 147.024 122.581 146.855 122.75C146.686 122.919 146.591 123.148 146.591 123.386V123.392Z" fill="#2F2E41"/>
<path d="M148.873 121.686L148.604 121.646C148.266 121.626 147.931 121.564 147.609 121.461C147.542 121.432 147.538 120.993 147.578 118.527C147.607 116.717 147.643 114.465 147.573 113.256C147.57 113.208 147.551 113.162 147.519 113.127C147.487 113.091 147.444 113.067 147.397 113.059C147.35 113.051 147.301 113.058 147.259 113.081C147.217 113.104 147.183 113.14 147.164 113.184C146.557 114.584 145.537 117.718 144.863 119.792C144.628 120.513 144.443 121.083 144.325 121.425C144.303 121.489 144.257 121.543 144.197 121.576C144.136 121.608 144.066 121.617 143.999 121.601C143.444 121.462 143.481 121.403 142.691 121.199C142.622 121.182 142.563 121.139 142.526 121.079C142.489 121.019 142.476 120.947 142.491 120.878C142.634 120.205 145.251 109.292 145.451 108.254C145.458 108.219 145.472 108.185 145.492 108.155C145.512 108.125 145.537 108.099 145.567 108.078C145.597 108.058 145.631 108.044 145.667 108.037C145.702 108.03 145.739 108.03 145.774 108.037C146.364 108.156 146.722 108.281 147.304 108.403C147.933 108.534 148.582 108.67 149.216 108.796C149.279 108.809 149.336 108.843 149.376 108.894C149.552 109.082 149.769 109.228 150.011 109.32C150.177 109.399 149.801 109.392 149.945 109.506C150.531 109.969 149.689 119.359 149.18 121.48C149.164 121.547 149.124 121.605 149.067 121.643C149.01 121.681 148.941 121.697 148.873 121.686V121.686Z" fill="#2F2E41"/>
<path d="M148.811 100.594C148.717 100.199 149.189 99.3488 149.096 98.9536C149.033 98.686 148.402 98.8679 148.255 98.6355C148.187 98.5157 148.09 98.4145 147.973 98.3406C147.857 98.2667 147.724 98.2224 147.586 98.2117C147.269 98.2082 146.958 98.4426 146.658 98.3413C146.587 98.3061 146.524 98.2573 146.472 98.1975C146.42 98.1378 146.38 98.0684 146.356 97.9933C146.331 97.9182 146.321 97.8389 146.328 97.7601C146.334 97.6813 146.356 97.6045 146.392 97.5342C146.552 97.2548 146.801 97.0367 147.1 96.9143C147.57 96.6275 148.133 96.5331 148.672 96.6506C148.98 96.7698 149.262 96.9469 149.503 97.1722C149.745 97.351 149.958 97.5662 150.133 97.8102C150.282 98.0646 150.363 98.353 150.368 98.6477C150.372 98.9423 150.301 99.2332 150.16 99.4922C149.869 100.009 149.405 100.408 148.849 100.618" fill="#2F2E41"/>
<path d="M144.886 109.79C145.059 109.502 145.321 108.155 145.644 105.893C145.864 104.349 146.055 102.78 146.15 101.979C146.158 101.914 146.181 101.852 146.219 101.799C146.257 101.745 146.308 101.703 146.367 101.675C146.429 101.645 146.49 101.617 146.551 101.59C147.283 101.256 148.095 101.138 148.892 101.249C149.689 101.361 150.438 101.698 151.049 102.221L151.056 102.228L151.058 102.237C151.061 102.255 151.391 104.03 150.715 105.23C150.048 106.413 150.04 109.548 150.04 109.579V109.619L150.002 109.608C148.964 109.313 144.957 109.83 144.916 109.835L144.854 109.844L144.886 109.79Z" fill="#8BC83F"/>
<path d="M150.917 105.677H147.811C147.676 105.677 147.567 105.786 147.567 105.92C147.567 106.055 147.676 106.164 147.811 106.164H150.917C151.052 106.164 151.161 106.055 151.161 105.92C151.161 105.786 151.052 105.677 150.917 105.677Z" fill="#CCCCCC"/>
<path d="M150.917 110.966H147.811C147.676 110.966 147.567 111.075 147.567 111.209C147.567 111.343 147.676 111.452 147.811 111.452H150.917C151.052 111.452 151.161 111.343 151.161 111.209C151.161 111.075 151.052 110.966 150.917 110.966Z" fill="#CCCCCC"/>
<path d="M149.394 123.489C149.364 123.489 149.335 123.477 149.312 123.457C149.29 123.436 149.276 123.408 149.273 123.378L147.72 105.931C147.717 105.899 147.727 105.867 147.748 105.842C147.769 105.818 147.798 105.802 147.831 105.799C147.863 105.796 147.895 105.806 147.92 105.827C147.944 105.848 147.96 105.878 147.963 105.91L149.393 121.973L150.782 105.91C150.783 105.894 150.788 105.878 150.795 105.864C150.802 105.85 150.812 105.837 150.825 105.827C150.837 105.817 150.851 105.809 150.866 105.804C150.882 105.799 150.898 105.797 150.914 105.799C150.93 105.8 150.945 105.805 150.959 105.812C150.974 105.819 150.986 105.83 150.997 105.842C151.007 105.854 151.015 105.868 151.019 105.884C151.024 105.899 151.026 105.915 151.025 105.931L149.516 123.377C149.513 123.408 149.499 123.436 149.477 123.457C149.454 123.477 149.425 123.489 149.394 123.489L149.394 123.489Z" fill="#CCCCCC"/>
<path d="M148.391 111.043C148.373 110.96 148.373 110.875 148.392 110.793C148.41 110.71 148.447 110.633 148.498 110.566C148.55 110.499 148.616 110.445 148.691 110.406C148.766 110.367 148.849 110.345 148.933 110.342L150.225 108.887L151.027 109.854L149.542 110.937C149.538 111.079 149.482 111.215 149.385 111.319C149.287 111.422 149.155 111.487 149.013 111.5C148.872 111.513 148.73 111.474 148.615 111.389C148.501 111.305 148.421 111.182 148.391 111.043H148.391Z" fill="#FFB8B8"/>
<path d="M149.143 110.03L151.181 107.318L150.13 105.071L150.207 102.406L151.068 102.247L151.077 102.251C151.496 102.496 151.82 102.873 151.999 103.323C152.19 103.8 152.587 105.425 152.886 106.704C152.965 107.033 152.957 107.376 152.864 107.702C152.771 108.027 152.596 108.323 152.355 108.561L149.855 111.056L149.143 110.03Z" fill="#8BC83F"/>
<path d="M140.601 122.734L143.389 123.404C143.443 123.419 143.5 123.414 143.551 123.39C143.602 123.366 143.642 123.326 143.666 123.275L146.061 116.92C146.072 116.896 146.077 116.869 146.077 116.843C146.077 116.816 146.072 116.79 146.061 116.765C146.049 116.738 146.032 116.713 146.01 116.693C145.988 116.672 145.962 116.656 145.934 116.646L143.838 115.847C143.805 115.835 143.769 115.829 143.734 115.831C143.698 115.833 143.664 115.842 143.632 115.859C143.605 115.872 143.581 115.891 143.561 115.915C143.542 115.938 143.528 115.966 143.52 115.995L143.52 115.996L142.04 121.597L142.018 121.598C141.559 121.625 141.123 121.807 140.78 122.113C140.709 122.199 140.657 122.298 140.626 122.405C140.595 122.512 140.586 122.624 140.601 122.734Z" fill="#CCCCCC"/>
<path d="M142.62 119.172L142.607 119.293L145.149 119.562L145.162 119.441L142.62 119.172Z" fill="#B3B3B3"/>
<path d="M142.398 120.174L142.348 120.284L144.394 121.203L144.444 121.092L142.398 120.174Z" fill="#B3B3B3"/>
<path d="M145.429 118.589L143.018 117.792L143.069 117.681L145.479 118.478L145.429 118.589Z" fill="#B3B3B3"/>
<path d="M145.673 118.042L143.262 116.88L143.312 116.769L145.723 117.931L145.673 118.042Z" fill="#B3B3B3"/>
<path d="M142.186 121.126L142.107 121.218L143.845 122.7L143.924 122.608L142.186 121.126Z" fill="#B3B3B3"/>
<path d="M141.692 121.617L141.581 121.667L142.279 123.203L142.39 123.153L141.692 121.617Z" fill="#B3B3B3"/>
<path d="M209.64 110.989C209.536 110.965 209.44 110.919 209.356 110.853C209.273 110.788 209.205 110.705 209.157 110.611C209.109 110.516 209.082 110.413 209.079 110.307C209.075 110.201 209.095 110.096 209.137 109.998L206.463 103.968L207.993 103.584L210.14 109.632C210.299 109.713 210.423 109.849 210.488 110.015C210.554 110.181 210.556 110.365 210.494 110.532C210.432 110.7 210.311 110.838 210.154 110.923C209.996 111.007 209.813 111.03 209.64 110.989Z" fill="#A0616A"/>
<path d="M206.959 105.858C206.916 105.839 206.878 105.811 206.848 105.776C206.817 105.74 206.794 105.699 206.78 105.654L206.313 104.093C206.211 103.877 206.199 103.629 206.28 103.404C206.361 103.179 206.528 102.995 206.745 102.893C206.961 102.791 207.21 102.779 207.435 102.86C207.661 102.941 207.845 103.108 207.947 103.324L208.851 104.687C208.877 104.726 208.894 104.77 208.901 104.816C208.909 104.862 208.906 104.909 208.893 104.954C208.881 104.999 208.858 105.041 208.828 105.076C208.798 105.112 208.76 105.141 208.718 105.16L207.23 105.855C207.188 105.875 207.142 105.886 207.095 105.886C207.048 105.886 207.002 105.877 206.959 105.858Z" fill="#6C63FF"/>
<path d="M212.403 105.08L210.763 106.239C210.742 106.254 210.716 106.262 210.69 106.262C210.665 106.262 210.639 106.254 210.618 106.239L210.175 105.907C210.16 105.896 210.148 105.882 210.139 105.866C210.131 105.85 210.126 105.832 210.125 105.814C210.124 105.796 210.128 105.778 210.135 105.761C210.142 105.744 210.153 105.729 210.167 105.717L211.429 104.594C211.446 104.579 211.466 104.57 211.488 104.565C211.509 104.561 211.532 104.563 211.552 104.57L212.374 104.863C212.395 104.871 212.414 104.885 212.428 104.902C212.442 104.92 212.451 104.941 212.454 104.963C212.457 104.985 212.454 105.008 212.445 105.028C212.436 105.049 212.421 105.067 212.403 105.08Z" fill="#3F3D56"/>
<path d="M212.27 104.97C212.274 104.959 212.273 104.947 212.268 104.937C212.264 104.926 212.255 104.918 212.244 104.914L211.504 104.649C211.497 104.647 211.489 104.646 211.481 104.648C211.474 104.649 211.466 104.653 211.46 104.658L210.322 105.671L210.316 105.678C210.312 105.682 210.31 105.687 210.309 105.693C210.307 105.698 210.307 105.704 210.308 105.709C210.309 105.715 210.311 105.72 210.314 105.725C210.317 105.729 210.321 105.734 210.325 105.737L210.724 106.036C210.732 106.041 210.741 106.044 210.75 106.044C210.759 106.044 210.768 106.041 210.776 106.035L212.254 104.99C212.261 104.985 212.267 104.978 212.27 104.97Z" fill="white"/>
<path d="M206.424 122.361H207.252L207.646 119.174H206.424V122.361Z" fill="#A0616A"/>
<path d="M206.213 122.091L207.844 122.091H207.844C207.98 122.091 208.115 122.118 208.241 122.17C208.367 122.222 208.482 122.299 208.579 122.395C208.675 122.491 208.752 122.606 208.804 122.731C208.856 122.857 208.883 122.992 208.883 123.128V123.162L206.213 123.162L206.213 122.091Z" fill="#2F2E41"/>
<path d="M203.656 122.361H204.484L204.877 119.174H203.656V122.361Z" fill="#A0616A"/>
<path d="M203.444 122.091L205.075 122.091H205.075C205.211 122.091 205.347 122.118 205.473 122.17C205.599 122.222 205.713 122.299 205.81 122.395C205.906 122.491 205.983 122.606 206.035 122.731C206.087 122.857 206.114 122.992 206.114 123.128V123.162L203.445 123.162L203.444 122.091Z" fill="#2F2E41"/>
<path d="M203.48 121.387C203.423 121.322 203.392 121.239 203.39 121.153C203.193 119.127 203.73 108.474 204.971 107.565L204.979 107.557L208.61 106.932L208.678 106.999C208.683 107.093 209.343 116.43 207.52 121.196C207.498 121.253 207.459 121.301 207.408 121.336C207.358 121.37 207.298 121.389 207.237 121.389H206.512C206.47 121.389 206.428 121.38 206.39 121.363C206.352 121.346 206.317 121.322 206.289 121.291C206.26 121.26 206.238 121.224 206.225 121.185C206.211 121.145 206.206 121.103 206.209 121.061L206.796 112.138C206.798 112.113 206.79 112.088 206.774 112.067C206.758 112.047 206.735 112.034 206.71 112.03C206.684 112.027 206.658 112.033 206.637 112.047C206.616 112.062 206.601 112.084 206.596 112.109L204.943 121.165C204.929 121.229 204.894 121.287 204.845 121.33C204.795 121.372 204.733 121.398 204.668 121.403L203.716 121.474C203.709 121.474 203.701 121.474 203.694 121.474C203.614 121.474 203.537 121.443 203.48 121.387Z" fill="#2F2E41"/>
<path d="M208.259 101.469C209.175 101.469 209.917 100.728 209.917 99.8139C209.917 98.8997 209.175 98.1586 208.259 98.1586C207.343 98.1586 206.6 98.8997 206.6 99.8139C206.6 100.728 207.343 101.469 208.259 101.469Z" fill="#A0616A"/>
<path d="M204.264 109.015C204.194 108.943 204.153 108.848 204.151 108.748L204.828 105.584C204.288 103.292 205.007 102.863 205.819 102.428L205.814 102.426L206.153 101.51C206.164 101.469 206.183 101.431 206.211 101.399C206.238 101.367 206.272 101.341 206.31 101.323C206.348 101.305 206.39 101.296 206.432 101.297C206.474 101.297 206.516 101.306 206.554 101.325L208.283 102.241C208.361 102.285 208.418 102.357 208.443 102.443C208.472 102.534 208.47 102.632 208.438 102.721L208.31 103.066C208.64 103.506 209.15 105.247 208.61 105.921L209.018 108.167C209.027 108.249 209.006 108.332 208.96 108.402C208.914 108.471 208.845 108.521 208.765 108.545L204.505 109.09C204.488 109.094 204.472 109.095 204.455 109.095C204.383 109.094 204.314 109.065 204.264 109.015Z" fill="#1F4C6B"/>
<path d="M210.465 105.385C210.438 105.411 210.413 105.438 210.39 105.468L207.049 105.237L206.69 104.508L205.517 104.904L206.026 106.256C206.067 106.366 206.143 106.459 206.241 106.521C206.34 106.584 206.456 106.613 206.573 106.604L210.372 106.317C210.456 106.434 210.574 106.522 210.709 106.57C210.845 106.618 210.992 106.624 211.131 106.587C211.27 106.55 211.395 106.471 211.488 106.361C211.581 106.252 211.638 106.117 211.653 105.974C211.667 105.831 211.637 105.687 211.568 105.561C211.498 105.435 211.392 105.334 211.263 105.27C211.134 105.206 210.988 105.183 210.846 105.203C210.703 105.224 210.571 105.287 210.465 105.385V105.385Z" fill="#A0616A"/>
<path d="M206.924 105.249L205.468 105.733C205.426 105.747 205.382 105.751 205.339 105.747C205.296 105.742 205.254 105.728 205.216 105.706C205.179 105.683 205.146 105.653 205.122 105.617C205.097 105.581 205.08 105.541 205.072 105.498L204.807 103.994C204.738 103.782 204.755 103.551 204.856 103.352C204.957 103.153 205.133 103.002 205.345 102.932C205.557 102.862 205.789 102.879 205.988 102.979C206.188 103.079 206.34 103.255 206.41 103.466L207.099 104.824C207.119 104.863 207.13 104.906 207.132 104.949C207.133 104.993 207.126 105.036 207.109 105.077C207.092 105.117 207.067 105.153 207.035 105.183C207.003 105.213 206.965 105.235 206.924 105.249Z" fill="#1F4C6B"/>
<path d="M207.327 98.5068C208.073 98.5068 208.678 97.9033 208.678 97.1588C208.678 96.4144 208.073 95.8109 207.327 95.8109C206.581 95.8109 205.976 96.4144 205.976 97.1588C205.976 97.9033 206.581 98.5068 207.327 98.5068Z" fill="#2F2E41"/>
<path d="M209.829 100.019C209.96 100.045 210.095 100.033 210.22 99.9859C210.283 99.9499 210.337 99.8995 210.378 99.8388C210.418 99.778 210.444 99.7087 210.452 99.6363C210.704 97.9676 209.282 98.1048 209.114 98.0326C209.008 97.9705 208.908 97.8979 208.816 97.816C208.58 97.6849 208.31 97.6256 208.039 97.6455C207.72 97.616 207.398 97.6553 207.096 97.7607C206.832 97.884 206.613 98.0856 206.468 98.3379C206.325 98.5891 206.22 98.8601 206.157 99.1421C206.057 99.4613 206.039 99.8002 206.104 100.128C206.173 100.373 206.317 100.59 206.516 100.749C206.715 100.908 206.959 101.001 207.213 101.015C207.172 100.819 207.197 100.614 207.285 100.434C207.372 100.253 207.516 100.106 207.695 100.016C207.98 99.8758 208.305 99.8372 208.615 99.9065C208.816 99.9471 209.02 99.9725 209.225 99.9823C209.426 99.9898 209.667 100.002 209.829 100.019Z" fill="#2F2E41"/>
<path d="M339.637 122.69C339.638 120.922 340.343 119.226 341.596 117.976C342.85 116.726 344.549 116.024 346.321 116.024C348.093 116.024 349.792 116.726 351.045 117.976C352.299 119.226 353.003 120.922 353.005 122.69" fill="#F2F2F2"/>
<path d="M346.321 122.69C346.273 122.69 346.227 122.671 346.193 122.637C346.159 122.603 346.14 122.558 346.14 122.51V118.994C346.14 118.946 346.159 118.9 346.193 118.867C346.227 118.833 346.273 118.814 346.321 118.814C346.369 118.814 346.415 118.833 346.449 118.867C346.482 118.9 346.501 118.946 346.501 118.994V122.51C346.501 122.558 346.482 122.603 346.449 122.637C346.415 122.671 346.369 122.69 346.321 122.69Z" fill="#CCCCCC"/>
<path d="M346.321 121.482C346.277 121.482 346.236 121.467 346.203 121.438L344.035 119.582C344.017 119.566 344.002 119.547 343.991 119.526C343.98 119.505 343.974 119.482 343.972 119.458C343.97 119.434 343.973 119.411 343.98 119.388C343.987 119.365 343.999 119.344 344.015 119.326C344.03 119.308 344.049 119.293 344.07 119.283C344.092 119.272 344.115 119.266 344.139 119.264C344.163 119.262 344.186 119.265 344.209 119.273C344.232 119.28 344.253 119.292 344.271 119.308L346.438 121.165C346.466 121.189 346.486 121.221 346.496 121.257C346.505 121.292 346.503 121.33 346.49 121.364C346.477 121.399 346.454 121.429 346.424 121.45C346.394 121.471 346.358 121.482 346.321 121.482L346.321 121.482Z" fill="#CCCCCC"/>
<path d="M360.231 122.69C360.232 120.922 360.937 119.226 362.19 117.976C363.444 116.726 365.143 116.024 366.915 116.024C368.687 116.024 370.386 116.726 371.639 117.976C372.893 119.226 373.597 120.922 373.599 122.69" fill="#F2F2F2"/>
<path d="M366.915 122.69C366.867 122.69 366.821 122.671 366.787 122.637C366.753 122.603 366.734 122.558 366.734 122.51V118.994C366.734 118.946 366.753 118.9 366.787 118.867C366.821 118.833 366.867 118.814 366.915 118.814C366.963 118.814 367.009 118.833 367.042 118.867C367.076 118.9 367.095 118.946 367.095 118.994V122.51C367.095 122.558 367.076 122.603 367.042 122.637C367.009 122.671 366.963 122.69 366.915 122.69Z" fill="#CCCCCC"/>
<path d="M366.915 121.482C366.871 121.482 366.83 121.467 366.797 121.438L364.629 119.582C364.611 119.566 364.596 119.547 364.585 119.526C364.574 119.505 364.567 119.482 364.566 119.458C364.564 119.434 364.566 119.411 364.574 119.388C364.581 119.365 364.593 119.344 364.609 119.326C364.624 119.308 364.643 119.293 364.664 119.283C364.686 119.272 364.709 119.265 364.733 119.264C364.757 119.262 364.78 119.265 364.803 119.273C364.826 119.28 364.847 119.292 364.865 119.308L367.032 121.165C367.06 121.189 367.08 121.221 367.09 121.256C367.099 121.292 367.097 121.33 367.084 121.364C367.071 121.399 367.048 121.429 367.018 121.45C366.988 121.471 366.952 121.482 366.915 121.482V121.482Z" fill="#CCCCCC"/>
</g>
<defs>
<clipPath id="clip0_1_74">
<rect width="408" height="175" fill="white" transform="translate(-16 -31)"/>
</clipPath>
</defs>
</svg>
